<mxfile host="65bd71144e">
    <diagram id="rfjSN9cdk0lPBWMgBJ06" name="Page-1">
        <mxGraphModel dx="1844" dy="890" grid="1" gridSize="10" guides="1" tooltips="1" connect="1" arrows="1" fold="1" page="1" pageScale="1" pageWidth="850" pageHeight="1100" math="0" shadow="0">
            <root>
                <mxCell id="0"/>
                <mxCell id="1" parent="0"/>
                <mxCell id="zSOSA6TjUo3DJ6Rty31Y-2" value="" style="rounded=0;whiteSpace=wrap;html=1;" parent="1" vertex="1">
                    <mxGeometry x="140" y="90" width="550" height="460" as="geometry"/>
                </mxCell>
                <mxCell id="3" style="edgeStyle=none;html=1;exitX=0.5;exitY=0.5;exitDx=0;exitDy=0;exitPerimeter=0;" parent="1" source="zSOSA6TjUo3DJ6Rty31Y-3" target="zSOSA6TjUo3DJ6Rty31Y-7" edge="1">
                    <mxGeometry relative="1" as="geometry"/>
                </mxCell>
                <mxCell id="zSOSA6TjUo3DJ6Rty31Y-3" value="Customer" style="shape=umlActor;verticalLabelPosition=bottom;verticalAlign=top;html=1;outlineConnect=0;" parent="1" vertex="1">
                    <mxGeometry x="60" y="200" width="30" height="60" as="geometry"/>
                </mxCell>
                <mxCell id="4" style="edgeStyle=none;html=1;exitX=0.5;exitY=0.5;exitDx=0;exitDy=0;exitPerimeter=0;" parent="1" source="zSOSA6TjUo3DJ6Rty31Y-4" target="zSOSA6TjUo3DJ6Rty31Y-7" edge="1">
                    <mxGeometry relative="1" as="geometry"/>
                </mxCell>
                <mxCell id="zSOSA6TjUo3DJ6Rty31Y-4" value="Cashier" style="shape=umlActor;verticalLabelPosition=bottom;verticalAlign=top;html=1;outlineConnect=0;" parent="1" vertex="1">
                    <mxGeometry x="20" y="410" width="30" height="60" as="geometry"/>
                </mxCell>
                <mxCell id="2" style="edgeStyle=none;html=1;exitX=0.5;exitY=0.5;exitDx=0;exitDy=0;exitPerimeter=0;" parent="1" source="zSOSA6TjUo3DJ6Rty31Y-5" target="zSOSA6TjUo3DJ6Rty31Y-7" edge="1">
                    <mxGeometry relative="1" as="geometry"/>
                </mxCell>
                <mxCell id="zSOSA6TjUo3DJ6Rty31Y-5" value="Manager" style="shape=umlActor;verticalLabelPosition=bottom;verticalAlign=top;html=1;outlineConnect=0;" parent="1" vertex="1">
                    <mxGeometry x="770" y="200" width="30" height="60" as="geometry"/>
                </mxCell>
                <mxCell id="5" style="edgeStyle=none;html=1;exitX=0.5;exitY=0.5;exitDx=0;exitDy=0;exitPerimeter=0;" parent="1" source="zSOSA6TjUo3DJ6Rty31Y-6" target="zSOSA6TjUo3DJ6Rty31Y-7" edge="1">
                    <mxGeometry relative="1" as="geometry"/>
                </mxCell>
                <mxCell id="zSOSA6TjUo3DJ6Rty31Y-6" value="Barista" style="shape=umlActor;verticalLabelPosition=bottom;verticalAlign=top;html=1;outlineConnect=0;" parent="1" vertex="1">
                    <mxGeometry x="750" y="410" width="30" height="60" as="geometry"/>
                </mxCell>
                <mxCell id="zSOSA6TjUo3DJ6Rty31Y-7" value="Log in" style="ellipse;whiteSpace=wrap;html=1;" parent="1" vertex="1">
                    <mxGeometry x="345" y="290" width="140" height="70" as="geometry"/>
                </mxCell>
                <mxCell id="zSOSA6TjUo3DJ6Rty31Y-19" value="Create Account" style="ellipse;whiteSpace=wrap;html=1;" parent="1" vertex="1">
                    <mxGeometry x="230" y="405" width="140" height="70" as="geometry"/>
                </mxCell>
                <mxCell id="zSOSA6TjUo3DJ6Rty31Y-20" value="Dan's Frappuccino Hell System - Authentication" style="text;html=1;strokeColor=none;fillColor=none;align=center;verticalAlign=middle;whiteSpace=wrap;rounded=0;" parent="1" vertex="1">
                    <mxGeometry x="360" y="110" width="130" height="30" as="geometry"/>
                </mxCell>
                <mxCell id="zSOSA6TjUo3DJ6Rty31Y-37" value="&amp;lt;&amp;lt;extends&amp;gt;&amp;gt;" style="endArrow=open;endSize=12;dashed=1;html=1;rounded=0;" parent="1" source="zSOSA6TjUo3DJ6Rty31Y-19" target="zSOSA6TjUo3DJ6Rty31Y-7" edge="1">
                    <mxGeometry width="160" relative="1" as="geometry">
                        <mxPoint x="430.4711687278976" y="490.52500241087444" as="sourcePoint"/>
                        <mxPoint x="419.5369524269768" y="459.4830138310292" as="targetPoint"/>
                        <Array as="points"/>
                    </mxGeometry>
                </mxCell>
                <mxCell id="6" value="Invalid Credentials" style="ellipse;whiteSpace=wrap;html=1;" parent="1" vertex="1">
                    <mxGeometry x="485" y="180" width="140" height="70" as="geometry"/>
                </mxCell>
                <mxCell id="7" value="&amp;lt;&amp;lt;extends&amp;gt;&amp;gt;" style="endArrow=open;endSize=12;dashed=1;html=1;rounded=0;" parent="1" source="6" target="zSOSA6TjUo3DJ6Rty31Y-7" edge="1">
                    <mxGeometry width="160" relative="1" as="geometry">
                        <mxPoint x="640.4711687278975" y="564.5350024108744" as="sourcePoint"/>
                        <mxPoint x="592.4616270707043" y="519.9989265993293" as="targetPoint"/>
                        <Array as="points"/>
                    </mxGeometry>
                </mxCell>
            </root>
        </mxGraphModel>
    </diagram>
</mxfile>